<?xml version="1.0" encoding="UTF-8"?>
<svg width="10px" height="10px" viewBox="0 0 10 10" version="1.1" xmlns="http://www.w3.org/2000/svg" xmlns:xlink="http://www.w3.org/1999/xlink">
    <title>Icons/Agile studio/Application/Default Copy 94</title>
    <g id="✅-Icons" stroke="none" stroke-width="1" fill="none" fill-rule="evenodd">
        <g id="Iconography" transform="translate(-323.000000, -627.000000)" fill="#BBBBBB" fill-rule="nonzero">
            <g id="Group" transform="translate(322.000000, 626.000000)">
                <g id="icon-resize" transform="translate(1.000000, 1.000000)">
                    <path d="M10,10 L8,10 L8,8 L10,8 L10,10 L10,10 Z M10,6 L8,6 L8,4 L10,4 L10,6 L10,6 Z M6,10 L4,10 L4,8 L6,8 L6,10 L6,10 Z M6,6 L4,6 L4,4 L6,4 L6,6 L6,6 Z M2,10 L0,10 L0,8 L2,8 L2,10 L2,10 Z M10,2 L8,2 L8,0 L10,0 L10,2 Z" id="icon"></path>
                </g>
            </g>
        </g>
    </g>
</svg>